<svg xmlns="http://www.w3.org/2000/svg" viewBox="0 0 512 512">
  <g fill="none">
    <polygon fill="#7F6D67" points="187.906 174.338 106.108 194.795 46.011 314.99 162.497 285.863"/>
    <polygon fill="#635550" points="337.693 323.96 226.137 349.503 197.01 465.989 317.205 405.892"/>
    <path fill="#FF3636" d="M295.837 352.352c-35.638 16.121-61.306 20.576-63.429 21.424l-94.398-94.398c2.121-5.091 5.303-29.487 20.789-64.064l46.882 4.455 91.004 91.004-.848 41.579z"/>
    <path fill="#CE2700" d="M295.837 352.352c-35.638 16.121-61.306 20.576-63.429 21.424l-47.093-47.093 63.64-63.64 47.73 47.73-.848 41.579z"/>
    <path fill="#EDE9E8" d="M410.6 271.105c-34.365 35.639-74.671 63.215-114.763 81.247L158.8 215.315c16.335-36.274 43.699-76.793 82.095-113.915C368.386-21.426 491.635 4.243 512 0c-4.031 20.153 21.213 143.826-101.4 271.105z"/>
    <path fill="#DFD7D5" d="M410.6 271.105c-34.365 35.639-74.671 63.215-114.763 81.247l-68.095-68.095L512 0c-4.031 20.153 21.213 143.826-101.4 271.105z"/>
    <path fill="#FFE477" d="M184.256 389.263C172.376 401.142 1.697 511.152 0 512c37.972-69.368 108.524-174.285 120.616-186.377 17.607-17.607 46.245-17.395 63.64 0 .423.423.636.636.848 1.273 16.758 17.608 16.334 45.184-.848 62.367z"/>
    <path fill="#7F6D67" d="M397.448 199.405c-23.334 23.334-61.519 23.334-84.853 0-23.334-23.334-23.334-61.519 0-84.853 23.334-23.334 61.519-23.334 84.853 0 23.334 23.334 23.334 61.519 0 84.853z"/>
    <rect width="30" height="30" x="265.779" y="216.216" fill="#BFBFBF" transform="rotate(135 280.779 231.216)"/>
    <rect width="30" height="30" x="414.269" y="67.729" fill="#BFBFBF" transform="rotate(135 429.269 82.729)"/>
    <rect width="15" height="30" x="427.069" y="73.032" fill="#ACACAC" transform="rotate(-135 434.57 88.032)"/>
    <rect width="15" height="30" x="278.578" y="221.529" fill="#ACACAC" transform="rotate(-135 286.078 236.53)"/>
    <path fill="#635550" d="M312.595 199.405l84.853-84.853c23.334 23.334 23.334 61.519 0 84.853-23.334 23.334-61.519 23.334-84.853 0z"/>
    <path fill="#00C7CE" d="M355.022 186.905c-8.061 0-15.595-3.094-21.214-8.714-5.619-5.62-8.714-13.153-8.714-21.213 0-8.061 3.095-15.594 8.714-21.213 5.619-5.619 13.153-8.714 21.214-8.714 8.06 0 15.594 3.094 21.213 8.714 11.696 11.697 11.696 30.729 0 42.427-5.619 5.619-13.153 8.713-21.213 8.713z"/>
    <path fill="#00969B" d="M355.022 186.905c8.06 0 15.594-3.094 21.213-8.714 11.696-11.697 11.696-30.729 0-42.427l-42.427 42.427c5.62 5.62 13.154 8.714 21.214 8.714z"/>
    <path fill="#FDBF00" d="M184.256 389.263C172.376 401.142 1.697 511.152 0 512l185.104-185.104c16.758 17.608 16.334 45.184-.848 62.367z"/>
  </g>
</svg>
