<svg xmlns="http://www.w3.org/2000/svg" viewBox="0 0 512 512">
  <path d="M496.692 204.054l-53.012-5.483a195.318 195.318 0 0 0-14.375-34.654l33.621-41.379a17.024 17.024 0 0 0-1.179-22.829l-49.454-49.454c-5.988-5.992-16.258-6.517-22.829-1.179l-41.379 33.621a195.318 195.318 0 0 0-34.654-14.375l-5.483-53.013A17.028 17.028 0 0 0 290.971 0h-69.942a17.025 17.025 0 0 0-16.975 15.308l-5.483 53.013a195.318 195.318 0 0 0-34.654 14.375l-41.379-33.621c-6.567-5.333-16.837-4.808-22.829 1.179L50.254 99.708a17.033 17.033 0 0 0-1.179 22.833l33.621 41.375a195.318 195.318 0 0 0-14.375 34.654l-53.013 5.483A17.026 17.026 0 0 0 0 221.029v69.942a17.025 17.025 0 0 0 15.308 16.975l53.013 5.483a195.318 195.318 0 0 0 14.375 34.654l-33.629 41.383a17.032 17.032 0 0 0 1.188 22.825l49.454 49.454c5.988 5.983 16.233 6.529 22.833 1.179l41.375-33.621a195.318 195.318 0 0 0 34.654 14.375l5.483 53.013a17.025 17.025 0 0 0 16.975 15.308h69.942a17.025 17.025 0 0 0 16.975-15.308l5.483-53.012a195.318 195.318 0 0 0 34.654-14.375l41.383 33.629a17.13 17.13 0 0 0 10.754 3.813c4.563 0 8.846-1.775 12.071-5l49.454-49.454a17.023 17.023 0 0 0 1.179-22.829l-33.621-41.379a195.318 195.318 0 0 0 14.375-34.654l53.013-5.483a17.025 17.025 0 0 0 15.308-16.975V221.03a17.024 17.024 0 0 0-15.307-16.976zm-1.759 86.917l-58.733 6.075a8.535 8.535 0 0 0-7.354 6.242 178.211 178.211 0 0 1-17.2 41.479 8.52 8.52 0 0 0 .788 9.612l37.246 45.846-49.454 49.458-45.842-37.25a8.525 8.525 0 0 0-9.617-.788 178.211 178.211 0 0 1-41.479 17.2 8.536 8.536 0 0 0-6.242 7.354l-6.067 58.733h-69.95l-6.075-58.733a8.535 8.535 0 0 0-6.242-7.354 178.211 178.211 0 0 1-41.479-17.2 8.529 8.529 0 0 0-9.616.787l-45.842 37.246-49.458-49.454 37.25-45.842a8.532 8.532 0 0 0 .788-9.617 178.211 178.211 0 0 1-17.2-41.479 8.536 8.536 0 0 0-7.354-6.242l-58.733-6.075v-69.942l58.733-6.075a8.535 8.535 0 0 0 7.354-6.242 178.211 178.211 0 0 1 17.2-41.479 8.529 8.529 0 0 0-.788-9.617l-37.246-45.842 49.458-49.454 45.842 37.246a8.518 8.518 0 0 0 9.612.788 178.211 178.211 0 0 1 41.479-17.2 8.536 8.536 0 0 0 6.242-7.354l6.075-58.733h69.942l6.075 58.733a8.535 8.535 0 0 0 6.242 7.354 178.211 178.211 0 0 1 41.479 17.2 8.535 8.535 0 0 0 9.612-.788l45.846-37.246 49.454 49.458-37.246 45.842a8.523 8.523 0 0 0-.788 9.612 178.211 178.211 0 0 1 17.2 41.479 8.536 8.536 0 0 0 7.354 6.242l58.734 6.075v69.945z"/>
  <path d="M256 153.6c-56.462 0-102.4 45.938-102.4 102.4 0 56.463 45.938 102.4 102.4 102.4 56.463 0 102.4-45.938 102.4-102.4S312.463 153.6 256 153.6zm0 187.733c-47.054 0-85.333-38.279-85.333-85.333 0-47.054 38.279-85.333 85.333-85.333 47.054 0 85.333 38.279 85.333 85.333 0 47.054-38.279 85.333-85.333 85.333z"/>
</svg>
