<svg xmlns="http://www.w3.org/2000/svg" viewBox="0 0 444 512">
  <path d="M378.904 286.829c-19.544-19.544-42.988-35.404-68.416-46.517 29.348-25.063 48.045-62.252 48.045-103.779C358.533 61.25 297.283 0 222 0 146.717 0 85.467 61.25 85.467 136.533c0 41.521 18.692 78.706 48.034 103.769C53.16 275.23.133 355.106.133 443.733v59.733a8.533 8.533 0 0 0 17.066 0v-59.733c0-85.232 53.138-161.658 132.548-191.565 20.986 13.161 45.706 20.898 72.252 20.898 26.562 0 51.295-7.745 72.29-20.921 27.095 10.268 52.127 26.333 72.548 46.751C405.504 337.563 426.8 389 426.8 443.733v59.733a8.533 8.533 0 0 0 17.066 0v-59.733c0-59.291-23.07-115.012-64.962-156.904zM222 256c-65.875 0-119.467-53.592-119.467-119.467S156.125 17.067 222 17.067s119.467 53.592 119.467 119.467S287.875 256 222 256z"/>
</svg>
